<svg width="20" height="20" viewBox="0 0 20 20" fill="none" xmlns="http://www.w3.org/2000/svg">
<path d="M5 6.42857C5 6.04969 5.15051 5.68633 5.41842 5.41842C5.68633 5.15051 6.04969 5 6.42857 5H13.5714C13.9503 5 14.3137 5.15051 14.5816 5.41842C14.8495 5.68633 15 6.04969 15 6.42857V13.5714C15 13.9503 14.8495 14.3137 14.5816 14.5816C14.3137 14.8495 13.9503 15 13.5714 15H6.42857C6.04969 15 5.68633 14.8495 5.41842 14.5816C5.15051 14.3137 5 13.9503 5 13.5714V6.42857ZM6.42857 5.71429C6.23913 5.71429 6.05745 5.78954 5.9235 5.9235C5.78954 6.05745 5.71429 6.23913 5.71429 6.42857V13.5714C5.71429 13.7609 5.78954 13.9426 5.9235 14.0765C6.05745 14.2105 6.23913 14.2857 6.42857 14.2857H13.5714C13.7609 14.2857 13.9426 14.2105 14.0765 14.0765C14.2105 13.9426 14.2857 13.7609 14.2857 13.5714V6.42857C14.2857 6.23913 14.2105 6.05745 14.0765 5.9235C13.9426 5.78954 13.7609 5.71429 13.5714 5.71429H6.42857Z" fill="#E2E1E4"/>
</svg>
