<svg width="20" height="20" viewBox="0 0 20 20" fill="none" xmlns="http://www.w3.org/2000/svg">
<path d="M10.9199 9.76559L14.7909 6.08226C14.8555 6.02504 14.9072 5.95604 14.9431 5.87937C14.979 5.80271 14.9983 5.71994 14.9999 5.63603C15.0015 5.55211 14.9852 5.46875 14.9522 5.39093C14.9192 5.3131 14.87 5.24241 14.8076 5.18306C14.7452 5.12371 14.6709 5.07692 14.5892 5.04549C14.5074 5.01405 14.4198 4.99862 14.3316 5.0001C14.2434 5.00158 14.1564 5.01995 14.0758 5.05411C13.9952 5.08827 13.9227 5.13752 13.8626 5.19892L9.99152 8.88226L6.12045 5.19892C5.99594 5.08852 5.83124 5.02842 5.66107 5.03128C5.4909 5.03413 5.32854 5.09973 5.2082 5.21424C5.08785 5.32875 5.01891 5.48324 5.01591 5.64515C5.01291 5.80707 5.07607 5.96378 5.1921 6.08226L9.06316 9.76559L5.1921 13.4489C5.06909 13.5661 5 13.725 5 13.8906C5 14.0562 5.06909 14.2151 5.1921 14.3323C5.31526 14.4493 5.48221 14.515 5.65628 14.515C5.83034 14.515 5.99729 14.4493 6.12045 14.3323L9.99152 10.6489L13.8626 14.3323C13.9857 14.4493 14.1527 14.515 14.3268 14.515C14.5008 14.515 14.6678 14.4493 14.7909 14.3323C14.9139 14.2151 14.983 14.0562 14.983 13.8906C14.983 13.725 14.9139 13.5661 14.7909 13.4489L10.9199 9.76559Z" fill="#E2E1E4"/>
</svg>
