<svg width="20" height="20" viewBox="0 0 20 20" fill="none" xmlns="http://www.w3.org/2000/svg">
<path d="M7.55313 6.25H6.90625C6.97829 5.89707 7.17006 5.57988 7.44909 5.35209C7.72813 5.12431 8.0773 4.99993 8.4375 5H12.5C13.163 5 13.7989 5.26339 14.2678 5.73223C14.7366 6.20107 15 6.83696 15 7.5V11.5625C15.0001 11.9227 14.8757 12.2719 14.6479 12.5509C14.4201 12.8299 14.1029 13.0217 13.75 13.0937V12.4469C13.9329 12.3822 14.0912 12.2624 14.2031 12.1041C14.315 11.9457 14.3751 11.7565 14.375 11.5625V7.5C14.375 7.00272 14.1775 6.52581 13.8258 6.17417C13.4742 5.82254 12.9973 5.625 12.5 5.625H8.4375C8.24355 5.6249 8.05434 5.68495 7.89594 5.79689C7.73755 5.90883 7.61778 6.06714 7.55313 6.25ZM6.5625 6.875C6.1481 6.875 5.75067 7.03962 5.45765 7.33265C5.16462 7.62567 5 8.0231 5 8.4375V13.4375C5 13.8519 5.16462 14.2493 5.45765 14.5424C5.75067 14.8354 6.1481 15 6.5625 15H11.5625C11.9769 15 12.3743 14.8354 12.6674 14.5424C12.9604 14.2493 13.125 13.8519 13.125 13.4375V8.4375C13.125 8.0231 12.9604 7.62567 12.6674 7.33265C12.3743 7.03962 11.9769 6.875 11.5625 6.875H6.5625ZM5.625 8.4375C5.625 8.18886 5.72377 7.9504 5.89959 7.77459C6.0754 7.59877 6.31386 7.5 6.5625 7.5H11.5625C11.8111 7.5 12.0496 7.59877 12.2254 7.77459C12.4012 7.9504 12.5 8.18886 12.5 8.4375V13.4375C12.5 13.6861 12.4012 13.9246 12.2254 14.1004C12.0496 14.2762 11.8111 14.375 11.5625 14.375H6.5625C6.31386 14.375 6.0754 14.2762 5.89959 14.1004C5.72377 13.9246 5.625 13.6861 5.625 13.4375V8.4375Z" fill="#E2E1E4"/>
</svg>
