<svg width="55" height="55" viewBox="0 0 55 55" fill="none" xmlns="http://www.w3.org/2000/svg">
<g clip-path="url(#clip0_132_70)">
<mask id="mask0_132_70" style="mask-type:luminance" maskUnits="userSpaceOnUse" x="0" y="0" width="55" height="55">
<path d="M55 0H0V55H55V0Z" fill="white"/>
</mask>
<g mask="url(#mask0_132_70)">
<path d="M45.8328 13.75C46.4167 13.7506 46.9786 13.9743 47.4033 14.3753C47.8282 14.7763 48.0837 15.3243 48.1178 15.9074C48.1522 16.4905 47.9625 17.0646 47.5875 17.5125C47.2126 17.9605 46.681 18.2483 46.1009 18.3173L45.8328 18.3333H45.6472L43.5411 43.5417C43.5411 45.2953 42.8711 46.9826 41.6682 48.2586C40.465 49.5344 38.8201 50.3023 37.0695 50.4052L36.6661 50.4167H18.3327C14.6707 50.4167 11.6777 47.5544 11.4761 44.1146L11.4646 43.7319L9.34941 18.3333H9.16608C8.58198 18.3327 8.02018 18.109 7.59544 17.7081C7.1707 17.3071 6.91511 16.7591 6.8809 16.176C6.84666 15.5929 7.03636 15.0187 7.41126 14.5708C7.78615 14.1229 8.31793 13.835 8.89795 13.766L9.16608 13.75H45.8328Z" fill="#E2E1E4"/>
<path d="M32.083 4.58331C33.2985 4.58331 34.4643 5.06619 35.3239 5.92575C36.1835 6.78528 36.6663 7.95108 36.6663 9.16665C36.6657 9.75075 36.442 10.3125 36.0412 10.7373C35.6401 11.162 35.092 11.4176 34.509 11.4518C33.926 11.4861 33.3517 11.2964 32.9039 10.9215C32.4559 10.5465 32.168 10.0148 32.099 9.43477L32.083 9.16665H22.9163L22.9003 9.43477C22.8313 10.0148 22.5435 10.5465 22.0955 10.9215C21.6476 11.2964 21.0735 11.4861 20.4904 11.4518C19.9073 11.4176 19.3593 11.162 18.9583 10.7373C18.5573 10.3125 18.3336 9.75075 18.333 9.16665C18.3326 8.01032 18.7694 6.89659 19.5556 6.04872C20.3419 5.20085 21.4195 4.68149 22.5726 4.59477L22.9163 4.58331H32.083Z" fill="#E2E1E4"/>
</g>
</g>
<defs>
<clipPath id="clip0_132_70">
<rect width="55" height="55" fill="white"/>
</clipPath>
</defs>
</svg>
